Coordinates
version=1
nRows=13
nColumns=40
inDegrees=yes

Units are S.I. units (second, meters, Newtons, ...)
If the header above contains a line with 'inDegrees', this indicates whether rotational values are in degrees (yes) or radians (no).

endheader
time	pelvis_tilt	pelvis_list	pelvis_rotation	pelvis_tx	pelvis_ty	pelvis_tz	hip_flexion_r	hip_adduction_r	hip_rotation_r	knee_angle_r	knee_angle_r_beta	ankle_angle_r	subtalar_angle_r	mtp_angle_r	hip_flexion_l	hip_adduction_l	hip_rotation_l	knee_angle_l	knee_angle_l_beta	ankle_angle_l	subtalar_angle_l	mtp_angle_l	lumbar_extension	lumbar_bending	lumbar_rotation	arm_flex_r	arm_add_r	arm_rot_r	elbow_flex_r	pro_sup_r	wrist_flex_r	wrist_dev_r	arm_flex_l	arm_add_l	arm_rot_l	elbow_flex_l	pro_sup_l	wrist_flex_l	wrist_dev_l
      0.17000000	     15.08618815	      3.85962464	    -10.00786958	     -0.90783609	      0.95494827	      0.27681220	    -17.46820666	     -6.44004785	     -0.34645344	     51.72776075	      0.90281974	    -16.12503637	      0.00000000	      0.00000000	     -2.45608566	      8.39348668	     -2.25921104	      5.67752865	      0.09909157	     -4.93778058	      0.00000000	      0.00000000	    -29.19459036	    -10.61881562	      3.74675871	      0.39158246	      4.00587447	    -32.15152221	     54.56436724	     64.62583980	     -7.05249623	      3.73219653	    -12.53574192	      1.49976523	    -38.25606065	     32.57580011	     88.80655180	    -16.53871060	      8.48937594
      0.18000000	     15.04246121	      4.53850586	    -10.21306737	     -0.89534612	      0.95592183	      0.27689871	    -15.59165122	     -7.36996418	      0.08894294	     54.69159682	      0.95454844	    -17.68227890	      0.00000000	      0.00000000	     -3.25683364	      9.24214659	     -1.77161499	      5.33402481	      0.09309630	     -4.42429422	      0.00000000	      0.00000000	    -29.07635298	    -11.32369682	      3.13516785	      0.39499616	      3.92081737	    -31.81055459	     53.72336596	     65.81826401	     -7.72780161	      3.93005514	    -12.13923270	      1.14064410	    -37.55829835	     32.87703359	     88.86752023	    -16.60245157	      8.54524096
      0.19000000	     14.85619804	      5.07610538	    -10.50962378	     -0.88348593	      0.95663744	      0.27713768	    -13.47044745	     -8.04756185	      0.86615677	     57.56409118	      1.00468292	    -18.13534298	      0.00000000	      0.00000000	     -3.87315370	      9.91944189	     -1.52145432	      5.03345559	      0.08785037	     -3.82871814	      0.00000000	      0.00000000	    -28.78994694	    -11.84174869	      2.57728940	      0.59022704	      3.93798925	    -31.49920588	     52.85681077	     69.77046767	     -9.91588515	      4.27988600	    -11.64346143	      0.81985040	    -36.82507272	     33.04404464	     88.92132921	    -17.36883502	      8.53371193
      0.20000000	     14.64116654	      5.48571503	    -10.85049921	     -0.87191204	      0.95737282	      0.27739924	    -11.28248331	     -8.53202736	      1.78119016	     60.19802101	      1.05065367	    -18.09700572	      0.00000000	      0.00000000	     -4.48305358	     10.47327764	     -1.42672369	      4.68254383	      0.08172581	     -3.28682881	      0.00000000	      0.00000000	    -28.52365851	    -12.28395002	      2.20466693	      0.75000312	      3.81457999	    -31.05938934	     51.89662366	     71.85075052	    -10.79250254	      4.62800789	    -11.08009069	      0.48347882	    -36.03842743	     33.31493317	     88.96994741	    -17.60934358	      8.46840388
      0.21000000	     14.80255437	      5.44591107	    -10.95580517	     -0.86071658	      0.95887128	      0.27737615	     -9.68527849	     -8.46030146	      2.60723446	     62.30420045	      1.08741344	    -17.77754425	      0.00000000	      0.00000000	     -5.63460632	     10.62929271	     -0.86032116	      4.23021470	      0.07383117	     -2.60565066	      0.00000000	      0.00000000	    -28.87892075	    -12.22346503	      1.86319092	      0.84275036	      3.65833993	    -30.68217373	     51.26603406	     72.69142034	    -11.04968436	      4.80581742	    -10.36490958	      0.20614424	    -35.30916450	     33.74252102	     89.04390432	    -17.57551028	      8.36694979
      0.22000000	     14.20236290	      5.71872343	    -11.54938277	     -0.84957037	      0.95887345	      0.27772459	     -6.95512070	     -8.65461583	      3.89576867	     64.60356678	      1.12754495	    -16.28253631	      0.00000000	      0.00000000	     -5.75224336	     11.02720652	     -1.50629419	      3.98979184	      0.06963500	     -2.05666138	      0.00000000	      0.00000000	    -28.06205332	    -12.53146094	      1.85905413	      1.10410512	      3.49050447	    -30.28417686	     50.03431434	     77.66243083	    -12.62481550	      5.39065456	     -9.75290998	     -0.04372718	    -34.40865538	     34.01605895	     89.05846020	    -18.21515437	      7.92828891
      0.23000000	     13.99857484	      5.57872771	    -11.82943618	     -0.83896887	      0.95981601	      0.27799208	     -4.90891399	     -8.29652761	      4.93246742	     66.24736917	      1.15623471	    -14.61108853	      0.00000000	      0.00000000	     -6.40552877	     11.03840032	     -1.67891595	      3.66928603	      0.06404112	     -1.48937159	      0.00000000	      0.00000000	    -27.99041725	    -12.39726798	      1.78924493	      1.32283990	      3.32109416	    -29.92665127	     49.14590993	     80.65979961	    -13.14597118	      5.99727106	     -8.92869612	     -0.32805713	    -33.47189269	     34.39031190	     89.09008286	    -18.65346467	      7.40029435
      0.24000000	     13.89508238	      5.18368737	    -11.97358083	     -0.82834367	      0.96096656	      0.27791642	     -3.14506756	     -7.64881345	      5.78822111	     67.44301615	      1.17710269	    -12.56660163	      0.00000000	      0.00000000	     -7.22783458	     10.81344546	     -1.67452110	      3.34869681	      0.05844579	     -0.93869095	      0.00000000	      0.00000000	    -28.08314292	    -11.96076326	      1.75789882	      1.46040098	      3.03318849	    -29.32894208	     48.32517551	     81.88406621	    -13.20774437	      6.28531054	     -8.10287107	     -0.54056118	    -32.59200639	     34.99257543	     89.12099300	    -18.67112646	      7.12989820
      0.25000000	     13.41962326	      5.02764636	    -12.35822497	     -0.81805488	      0.96137694	      0.27807833	     -0.80410036	     -7.13510696	      6.91057492	     68.53180426	      1.19610563	    -10.35273435	      0.00000000	      0.00000000	     -7.43662346	     10.79145256	     -2.26382534	      3.28457851	      0.05732671	     -0.41532326	      0.00000000	      0.00000000	    -27.66633219	    -11.76767431	      1.86491456	      1.69649652	      2.86641190	    -29.06805663	     47.33302803	     85.18676082	    -13.52386477	      6.73036006	     -7.22887949	     -0.71723212	    -31.82056656	     35.45991585	     89.14938446	    -19.21593184	      6.41104130
      0.26000000	     13.24399117	      4.52032026	    -12.40029681	     -0.80764682	      0.96246369	      0.27783556	      0.85824626	     -6.28210618	      7.58056438	     68.95285602	      1.20345437	     -7.96662181	      0.00000000	      0.00000000	     -8.11615475	     10.43751876	     -2.34094337	      3.11551683	      0.05437603	      0.03826149	      0.00000000	      0.00000000	    -27.74160337	    -11.15985627	      1.91309459	      1.77926450	      2.57783401	    -28.48900625	     46.59739595	     85.94871446	    -13.45797236	      6.94684202	     -6.31466022	     -0.86679652	    -30.99018278	     36.24023498	     89.18960285	    -19.22167660	      6.11834132
      0.27000000	     12.83397906	      4.19586335	    -12.56644034	     -0.79733451	      0.96302607	      0.27766490	      2.83165222	     -5.57204603	      8.31433358	     69.16816105	      1.20721215	     -5.52625692	      0.00000000	      0.00000000	     -8.37937537	     10.24077013	     -2.83345772	      3.19679396	      0.05579458	      0.65743811	      0.00000000	      0.00000000	    -27.45321668	    -10.71370974	      2.03355620	      1.89170338	      2.33829767	    -28.02339977	     45.69933674	     87.32888883	    -13.47791454	      7.15447580	     -5.34950966	     -0.98999403	    -30.28809372	     36.86425851	     89.19605709	    -19.50861150	      5.63637115
      0.28000000	     12.52571037	      3.75538096	    -12.52602071	     -0.78696333	      0.96376450	      0.27722232	      4.50314552	     -4.76746276	      8.78465013	     68.90711177	      1.20265598	     -3.28398962	      0.00000000	      0.00000000	     -8.81954042	      9.92085483	     -2.98613964	      3.18270857	      0.05554874	      1.04180699	      0.00000000	      0.00000000	    -27.37320875	    -10.09245982	      2.10949938	      1.87632629	      2.09632145	    -27.55314588	     45.04738057	     87.81688587	    -13.42717211	      7.27272365	     -4.40627922	     -1.06916210	    -29.51715081	     37.81311640	     89.22161419	    -19.57928683	      5.29318930
      0.29000000	     12.27800014	      3.40256021	    -12.38702873	     -0.77666817	      0.96458370	      0.27665075	      6.06372185	     -4.13080958	      9.02923819	     68.30737915	      1.19218867	     -1.48627801	      0.00000000	      0.00000000	     -9.24704500	      9.68042224	     -3.09750690	      3.29491139	      0.05750705	      1.32299754	      0.00000000	      0.00000000	    -27.35529092	     -9.56332856	      2.23645902	      1.80095320	      1.87743651	    -27.21447963	     44.37198599	     88.13855316	    -13.39422172	      7.39055615	     -3.35801546	     -1.10815130	    -28.84803393	     38.90693153	     89.30601412	    -19.57346044	      5.01124996
